<svg xmlns="http://www.w3.org/2000/svg" fill="none" viewBox="0 0 26 40"><path fill="#918299" d="M13 20c0-3.67 2.9-6.66 6.5-6.66 3.58 0 6.5 2.98 6.5 6.67 0 3.67-2.9 6.67-6.5 6.67-3.59 0-6.5-3-6.5-6.67Z"/><path fill="#828282" d="M0 33.33c0-3.67 2.9-6.67 6.5-6.67H13v6.67C13 37.01 10.1 40 6.5 40S0 37.02 0 33.33Z"/><path fill="#55587B" d="M13 .02v13.32h6.5c3.58 0 6.5-2.98 6.5-6.67C26 2.99 23.1 0 19.5 0H13v.02Z"/><path fill="#626085" d="M0 6.68c0 3.68 2.9 6.67 6.5 6.67H13V.02H6.5C2.9.02 0 2.99 0 6.68Z"/><path fill="#8D8494" d="M0 20c0 3.68 2.9 6.68 6.5 6.68H13V13.34H6.5c-3.6 0-6.5 3-6.5 6.67Z"/></svg>