<svg xmlns="http://www.w3.org/2000/svg" fill="none" viewBox="0 0 135 45"><g clip-path="url(#a)"><rect width="135" height="45" fill="#D6FF3F" rx="22.5"/><path stroke="#240532" stroke-linecap="round" d="M57.35 58.36c.67-.06 1.04 1.22 0 1.89-.92.71-3.08.2-3.7-1.9-.73-1.96.68-5.04 3.7-5.66 2.9-.77 6.81 1.56 7.38 5.67.79 3.97-2.4 8.9-7.38 9.45-4.87.83-10.56-3.33-11.08-9.45-.85-6 4.12-12.73 11.08-13.23 6.83-.88 14.31 5.1 14.76 13.23.9 8.02-5.83 16.56-14.76 17-8.82.95-18.05-6.84-18.46-17-.94-10.02 7.54-20.4 18.46-20.78 10.8-1 21.79 8.6 22.14 20.78 1 12.04-9.26 24.24-22.14 24.56C44.59 83.97 31.8 72.55 31.5 58.36 30.45 44.3 42.49 30.29 57.35 30.02c14.73-1.12 29.28 12.13 29.53 28.34 1.1 16.07-12.7 31.91-29.53 32.12-16.7 1.17-33.03-13.9-33.22-32.12-1.16-18.1 14.42-35.73 33.22-35.9 18.67-1.2 36.78 15.64 36.9 35.9 1.23 20.13-16.14 39.56-36.9 39.67-20.65 1.27-40.53-17.39-40.6-39.67-1.28-22.14 17.86-43.4 40.6-43.45 22.61-1.34 44.27 19.17 44.29 43.45 1.33 24.16-19.58 47.24-44.3 47.23-24.58 1.38-48.02-20.91-47.98-47.23C7.97 32.18 30.67 7.29 57.35 7.35c26.57-1.44 51.75 22.69 51.67 51 1.43 28.2-23 54.92-51.67 54.8-28.55 1.5-55.5-24.44-55.37-54.8C.5 28.16 26.7-.37 57.35-.2 87.85-1.77 116.6 26 116.4 58.36c1.55 32.24-26.45 62.57-59.05 62.34-32.49 1.61-63-27.96-62.75-62.34C-7 24.1 22.77-8.06 57.35-7.76c34.45-1.68 66.74 29.72 66.44 66.12 1.65 36.29-29.9 70.23-66.44 69.9-36.42 1.71-70.5-31.47-70.14-69.9-1.71-38.31 31.62-74.06 70.14-73.68 38.4-1.77 74.23 33.23 73.82 73.68 1.77 40.32-33.34 77.9-73.82 77.46-40.37 1.83-77.99-35-77.52-77.46-1.81-42.34 35.06-81.74 77.52-81.24 42.33-1.88 81.73 36.76 81.2 81.24 1.89 44.36-36.78 85.57-81.2 85.01-44.32 1.94-85.47-38.51-84.9-85.01-1.92-46.36 38.48-89.42 84.9-88.8 46.29-2 89.2 40.28 88.58 88.8 1.98 48.39-40.2 93.25-88.58 92.57C9.09 153-35.62 108.9-34.93 58.36-36.97 7.96 6.99-38.72 57.35-38"/><circle cx="22.5" cy="22.5" r="16.5" fill="#F9F7F8"/><path fill="#240532" d="M27.5 21.63a1 1 0 0 1 0 1.74l-6.75 3.9a1 1 0 0 1-1.5-.87v-7.8a1 1 0 0 1 1.5-.86l6.75 3.9Z"/></g><defs><clipPath id="a"><rect width="135" height="45" fill="#fff" rx="22.5"/></clipPath></defs></svg>