<svg width="135" height="45" viewBox="0 0 135 45" fill="none" xmlns="http://www.w3.org/2000/svg">
<g clip-path="url(#clip0_25_600)">
<rect width="135" height="45" rx="22.5" fill="#D6FF3F"/>
<path d="M57.3468 58.3586C58.0248 58.2978 58.3904 59.5791 57.3468 60.2479C56.4252 60.9607 54.2705 60.4428 53.6556 58.3586C52.9237 56.3903 54.3301 53.3106 57.3468 52.6916C60.2428 51.9209 64.163 54.2497 64.729 58.3586C65.5162 62.332 62.335 67.2548 57.3468 67.805C52.4777 68.6365 46.7863 64.4762 46.2727 58.3586C45.4223 52.367 50.3933 45.6312 57.3468 45.1345C64.1802 44.2488 71.6645 50.2228 72.1112 58.3586C73.0112 66.3802 66.2754 74.9159 57.3468 75.3621C48.5266 76.3085 39.302 68.5178 38.8905 58.3586C37.9524 48.3372 46.4314 37.9554 57.3468 37.5774C68.1421 36.5767 79.135 46.1813 79.4934 58.3586C80.4954 70.4034 70.2301 82.5954 57.3468 82.9192C44.5855 83.9696 31.8034 72.5549 31.5082 58.3586C30.4538 44.2957 42.4904 30.2906 57.3468 30.0203C72.0796 28.9017 86.6329 42.1515 86.8757 58.3586C87.9832 74.4332 74.1748 90.2704 57.3468 90.4755C40.6416 91.6454 24.3164 76.5891 24.126 58.3586C22.966 40.2512 38.55 22.6295 57.3468 22.464C76.02 21.2545 94.1315 38.0953 94.2579 58.3586C95.4811 78.4857 78.1115 97.9212 57.3468 98.0326C36.7041 99.2955 16.8177 80.6409 16.7439 58.3586C15.4678 36.217 34.609 14.9571 57.3468 14.9067C79.961 13.5717 101.619 34.0758 101.64 58.3586C102.969 82.5192 82.0562 105.597 57.3468 105.59C32.7638 106.971 9.31948 84.6751 9.36164 58.3586C7.96952 32.1799 30.6715 7.29228 57.3468 7.34986C83.9157 5.91046 109.104 30.035 109.022 58.3586C110.453 86.5534 86.0109 113.269 57.3468 113.147C28.8019 114.647 1.84927 88.7056 1.97934 58.3586C0.499378 28.1457 26.7103 -0.383398 57.3468 -0.207071C87.8561 -1.76523 116.601 26.0044 116.405 58.3586C117.948 90.6015 89.9512 120.93 57.3468 120.703C24.8644 122.312 -5.65255 92.7428 -5.40295 58.3586C-6.99892 24.1049 22.7692 -8.05542 57.3468 -7.76393C91.8007 -9.43725 124.089 21.9636 123.787 58.3586C125.436 94.6467 93.8959 128.591 57.3468 128.26C20.9269 129.973 -13.1508 96.7909 -12.7852 58.3586C-14.5007 20.0487 18.8321 -15.7023 57.3468 -15.3209C95.7411 -17.0877 131.584 17.9079 131.169 58.3586C132.937 98.6802 97.8327 136.267 57.3468 135.817C16.9795 137.645 -20.635 100.825 -20.1675 58.3586C-21.985 16.0187 14.8878 -23.3779 57.3468 -22.8777C99.6786 -24.7634 139.082 13.8776 138.551 58.3586C140.436 102.718 101.77 143.932 57.3468 143.374C13.0282 145.313 -28.1193 104.859 -27.5498 58.3586C-29.4692 11.9991 10.933 -31.0608 57.3468 -30.4347C103.64 -32.4354 146.556 9.84365 145.933 58.3586C147.906 106.749 105.732 151.608 57.3468 150.931C9.08742 152.989 -35.6175 108.893 -34.932 58.3586C-36.9675 7.95078 6.99226 -38.722 57.3468 -37.9915" stroke="#240532" stroke-linecap="round"/>
<circle cx="22.5" cy="22.5" r="16.5" fill="#F9F7F8"/>
<path d="M27.5 21.634C28.1667 22.0189 28.1667 22.9811 27.5 23.366L20.75 27.2631C20.0833 27.648 19.25 27.1669 19.25 26.3971V18.6029C19.25 17.8331 20.0833 17.352 20.75 17.7369L27.5 21.634Z" fill="#240532"/>
</g>
<defs>
<clipPath id="clip0_25_600">
<rect width="135" height="45" rx="22.5" fill="white"/>
</clipPath>
</defs>
</svg>
