<svg width="15" height="22" viewBox="0 0 15 22" fill="none" xmlns="http://www.w3.org/2000/svg">
<path d="M7.49573 11.004C7.49573 8.98282 9.17184 7.33594 11.2478 7.33594C13.3153 7.33594 15 8.9745 15 11.004C15 13.0252 13.3238 14.672 11.2478 14.672C9.18035 14.672 7.49573 13.0252 7.49573 11.004Z" fill="#918299"/>
<path d="M0 18.3319C0 16.3107 1.67612 14.6638 3.75212 14.6638H7.50423V18.3319C7.50423 20.353 5.82812 21.9999 3.75212 21.9999C1.67612 21.9999 0 20.3614 0 18.3319Z" fill="#828282"/>
<path d="M7.49573 0.00831758V7.3361H11.2478C13.3153 7.3361 15 5.69754 15 3.66805C15 1.64688 13.3238 0 11.2478 0H7.49573V0.00831758Z" fill="#55587B"/>
<path d="M0 3.67611C0 5.69728 1.67612 7.34416 3.75212 7.34416H7.50423V0.00805664H3.75212C1.67612 0.00805664 0 1.64662 0 3.67611Z" fill="#626085"/>
<path d="M0 11.004C0 13.0252 1.67612 14.672 3.75212 14.672H7.50423V7.33594H3.75212C1.67612 7.33594 0 8.98282 0 11.004Z" fill="#8D8494"/>
</svg>
