<svg xmlns="http://www.w3.org/2000/svg" fill="none" viewBox="0 0 15 22"><path fill="#918299" d="M7.5 11a3.71 3.71 0 0 1 3.75-3.66A3.71 3.71 0 0 1 15 11a3.71 3.71 0 0 1-3.75 3.67A3.72 3.72 0 0 1 7.5 11Z"/><path fill="#828282" d="M0 18.33a3.71 3.71 0 0 1 3.75-3.67H7.5v3.67A3.71 3.71 0 0 1 3.75 22 3.7 3.7 0 0 1 0 18.33Z"/><path fill="#55587B" d="M7.5 0v7.34h3.75A3.71 3.71 0 0 0 15 3.67 3.71 3.71 0 0 0 11.25 0H7.5Z"/><path fill="#626085" d="M0 3.68a3.71 3.71 0 0 0 3.75 3.66H7.5V.01H3.75A3.7 3.7 0 0 0 0 3.68Z"/><path fill="#8D8494" d="M0 11a3.71 3.71 0 0 0 3.75 3.67H7.5V7.34H3.75A3.71 3.71 0 0 0 0 11Z"/></svg>